#!OML:ASF F:\VICON\USERDATA\INSTALL\rory3\rory3.ASF
:FULLY-SPECIFIED
:DEGREES
4002
root 11.6108 17.8929 -8.64909 20.2147 -20.7271 6.72717
lowerback 17.845 -0.767407 1.27101
upperback 6.22741 -0.507269 8.21314
thorax -3.225 -0.362286 8.23778
lowerneck -7.63331 -11.1676 -10.5094
upperneck 30.6521 -17.1024 9.26418
head 13.3353 -7.67335 2.86939
rclavicle 1.74931e-014 7.63333e-014
rhumerus 15.543 -3.12688 -73.3724
rradius 39.0004
rwrist -37.5546
rhand -34.9616 -25.6039
rfingers 7.12502
rthumb -8.10769 -55.4284
lclavicle 1.74931e-014 7.63333e-014
lhumerus 18.5113 -38.5535 86.0754
lradius 45.9134
lwrist 16.0017
lhand -12.095 47.6524
lfingers 7.12502
lthumb 13.9655 -1722.84
rfemur -44.5151 -11.9638 16.6333
rtibia 37.1693
rfoot -14.6649 -6.07115
rtoes 11.228
lfemur -33.8095 -4.76589 -24.3756
ltibia 25.9209
lfoot -9.11918 -3.84699
ltoes -10.1172
4003
root 11.578 17.8931 -8.6869 20.0936 -20.6075 6.93745
lowerback 17.926 -0.822436 1.12895
upperback 6.26285 -0.600021 8.21081
thorax -3.21504 -0.409698 8.34068
lowerneck -7.68284 -11.0957 -10.7661
upperneck 30.924 -17.0065 9.32841
head 13.4868 -7.64361 2.95023
rclavicle 5.88403e-014 -1.90833e-014
rhumerus 16.4428 -3.96372 -73.042
rradius 38.1376
rwrist -36.9079
rhand -35.2863 -25.5328
rfingers 7.12502
rthumb -8.42109 -55.3449
lclavicle 5.88403e-014 -1.90833e-014
lhumerus 19.3042 -38.5086 85.7987
lradius 45.9643
lwrist 16.2423
lhand -11.9472 47.5019
lfingers 7.12502
lthumb 14.1079 -1723
rfemur -44.6417 -12.4717 16.7737
rtibia 37.276
rfoot -14.4967 -5.68544
rtoes 11.7803
lfemur -33.6737 -5.27198 -24.1578
ltibia 25.6249
lfoot -9.15488 -3.72618
ltoes -10.8944
4004
root 11.5464 17.8931 -8.72411 20.0269 -20.4929 7.14695
lowerback 17.9359 -0.862231 1.00667
upperback 6.27386 -0.671842 8.20291
thorax -3.19685 -0.446041 8.41892
lowerneck -7.70817 -11.0526 -10.9035
upperneck 31.2203 -16.9336 9.25315
head 13.6183 -7.62654 2.95673
rclavicle 1.74931e-014 7.31528e-014
rhumerus 17.2948 -5.05491 -73.0004
rradius 37.2515
rwrist -36.0562
rhand -35.223 -25.154
rfingers 7.12502
rthumb -8.35998 -54.9685
lclavicle 1.74931e-014 7.31528e-014
lhumerus 19.894 -38.4785 85.6832
lradius 46.005
lwrist 16.1384
lhand -11.8957 47.6497
lfingers 7.12502
lthumb 14.1575 -1722.85
rfemur -44.8159 -12.8977 16.9099
rtibia 37.3542
rfoot -14.2516 -5.31604
rtoes 12.6965
lfemur -33.6114 -5.72546 -23.9781
ltibia 25.3524
lfoot -9.29587 -3.65668
ltoes -11.8123
4005
root 11.5154 17.8926 -8.76064 19.9983 -20.4065 7.30122
lowerback 17.9922 -0.895779 0.912777
upperback 6.21979 -0.722348 8.20159
thorax -3.27616 -0.468356 8.48746
lowerneck -7.76918 -10.9797 -10.7609
upperneck 31.5303 -16.7695 8.87571
head 13.6856 -7.57225 2.81635
rclavicle 2.54444e-014 -1.00187e-013
rhumerus 17.9152 -6.01213 -73.0545
rradius 36.4873
rwrist -35.1015
rhand -35.0344 -24.8282
rfingers 7.12502
rthumb -8.17799 -54.65
lclavicle 2.54444e-014 -1.00187e-013
lhumerus 20.251 -38.4819 85.6096
lradius 46.0709
lwrist 16.061
lhand -12.1365 47.6459
lfingers 7.12502
lthumb 13.9255 -1722.84
rfemur -45.0105 -13.1717 17.0736
rtibia 37.4275
rfoot -14.03 -5.10619
rtoes 12.8862
lfemur -33.5638 -6.06568 -23.7919
ltibia 25.0683
lfoot -9.46159 -3.57828
ltoes -12.5052
4006
root 11.4858 17.8922 -8.79695 20.0957 -20.3833 7.32037
lowerback 17.9839 -0.90942 0.921052
upperback 6.15988 -0.733185 8.21091
thorax -3.33475 -0.471003 8.49671
lowerneck -7.96309 -10.916 -10.6305
upperneck 31.9265 -16.6394 8.56086
head 13.8345 -7.52022 2.68791
rclavicle 1.11319e-014 6.36111e-015
rhumerus 18.3788 -6.79575 -73.1327
rradius 35.8821
rwrist -34.1281
rhand -34.9941 -24.8337
rfingers 7.12502
rthumb -8.13905 -54.6569
lclavicle 1.11319e-014 6.36111e-015
lhumerus 20.6492 -38.634 85.3016
lradius 46.1999
lwrist 16.2049
lhand -12.1307 47.4575
lfingers 7.12502
lthumb 13.9311 -1723.03
rfemur -45.3245 -13.4445 17.4443
rtibia 37.4905
rfoot -13.7968 -4.97316
rtoes 12.5795
lfemur -33.584 -6.3075 -23.5016
ltibia 24.7414
lfoot -9.64748 -3.43683
ltoes -13.1282
4007
root 11.4571 17.8924 -8.83172 20.199 -20.3828 7.39745
lowerback 17.913 -0.90674 0.940471
upperback 6.0954 -0.72475 8.20147
thorax -3.36862 -0.464067 8.47138
lowerneck -7.9643 -10.8795 -10.6684
upperneck 32.1148 -16.5645 8.44015
head 13.8991 -7.50131 2.66132
rclavicle -2.54444e-014 -1.08139e-013
rhumerus 18.6657 -7.47704 -73.1703
rradius 35.4864
rwrist -33.5218
rhand -35.0968 -24.7865
rfingers 7.12502
rthumb -8.23824 -54.6059
lclavicle -2.54444e-014 -1.08139e-013
lhumerus 21.0693 -39.0056 84.9159
lradius 46.3267
lwrist 16.3136
lhand -11.9473 47.4788
lfingers 7.12502
lthumb 14.1078 -1723.02
rfemur -45.6579 -13.743 17.758
rtibia 37.5466
rfoot -13.6382 -4.8086
rtoes 12.9985
lfemur -33.6026 -6.58929 -23.2628
ltibia 24.3888
lfoot -9.7917 -3.17655
ltoes -12.8883
